<svg width="420" height="520" viewBox="0 0 420 520" fill="none" xmlns="http://www.w3.org/2000/svg">
  <rect width="420" height="520" rx="28" fill="#F6F1EA"/>
  <circle cx="150" cy="145" r="38" fill="#8E6347"/>
  <circle cx="270" cy="145" r="38" fill="#8E6347"/>
  <circle cx="210" cy="196" r="96" fill="#9A6D4F"/>
  <ellipse cx="210" cy="228" rx="42" ry="30" fill="#C79369"/>
  <circle cx="190" cy="188" r="7" fill="#2A1D18"/>
  <circle cx="230" cy="188" r="7" fill="#2A1D18"/>
  <ellipse cx="210" cy="223" rx="10" ry="8" fill="#2A1D18"/>
  <path d="M191 238C201 248 219 248 229 238" stroke="#2A1D18" stroke-width="5" stroke-linecap="round"/>
  <rect x="138" y="278" width="144" height="88" rx="28" fill="#DFE9F8"/>
  <path d="M138 306H282" stroke="#6F8EC9" stroke-width="12" stroke-dasharray="12 14"/>
  <path d="M144 356C144 338 159 324 177 324H243C261 324 276 338 276 356V390C276 408 261 422 243 422H177C159 422 144 408 144 390V356Z" fill="#9A6D4F"/>
</svg>
